#Comment line ignore any data following # character 
#Hierarchical Translation and Rotation (.htr) file 
[Header]	
#Header keywords are followed by a single value 
FileType HTR		#Single word string
DataType HTRS		#Translation followed by rotation and scale data
FileVersion 1		#integer
NumSegments 84		#integer
NumFrames 2		#integer
DataFrameRate 30		#integer, data frame rate in this file
EulerRotationOrder ZYX
CalibrationUnits mm
RotationUnits Degrees
GlobalAxisofGravity Y
BoneLengthAxis Y
ScaleFactor 1.00
[SegmentNames&Hierarchy]
#CHILD	PARENT
MASTER GLOBAL
root MASTER
chest root
L_mid_tent01 root
R_mid_tent01 root
spine01 root
Bip01_Neck chest
L_humerus chest
R_humerus chest
weapon_bone chest
Bip01_Head Bip01_Neck
eye_left_bone Bip01_Head
eye_right_bone Bip01_Head
L_forearm L_humerus
L_front_hand L_forearm
L_weapon_bone L_forearm
L_front_hand01_01 L_front_hand
L_front_hand02_01 L_front_hand
L_front_hand03_01 L_front_hand
L_front_hand01_02 L_front_hand01_01
L_front_hand02_02 L_front_hand02_01
L_front_hand03_02 L_front_hand03_01
R_forearm R_humerus
R_front_hand R_forearm
R_weapon_bone R_forearm
R_front_hand01_01 R_front_hand
R_front_hand02_01 R_front_hand
R_front_hand03_01 R_front_hand
R_front_hand01_02 R_front_hand01_01
R_front_hand02_02 R_front_hand02_01
R_front_hand03_02 R_front_hand03_01
null_rope01_connect L_mid_tent01
Rope1_Seg01 null_rope01_connect
Rope1_Seg02 Rope1_Seg01
Rope1_Seg03 Rope1_Seg02
Rope1_Seg04 Rope1_Seg03
Rope1_Seg05 Rope1_Seg04
Rope1_Seg06 Rope1_Seg05
Rope1_Seg07 Rope1_Seg06
Rope1_Seg09 Rope1_Seg07
L_mid_hand01 Rope1_Seg09
L_mid_hand02 Rope1_Seg09
L_mid_hand03 Rope1_Seg09
null_rope02_connect R_mid_tent01
Rope2_Seg01 null_rope02_connect
Rope2_Seg02 Rope2_Seg01
Rope2_Seg03 Rope2_Seg02
Rope2_Seg04 Rope2_Seg03
Rope2_Seg05 Rope2_Seg04
Rope2_Seg06 Rope2_Seg05
Rope2_Seg07 Rope2_Seg06
Rope2_Seg09 Rope2_Seg07
R_mid_hand01 Rope2_Seg09
R_mid_hand02 Rope2_Seg09
R_mid_hand03 Rope2_Seg09
spine02 spine01
spine03 spine02
pelvis spine03
null_rope03_connect pelvis
null_rope04_connect pelvis
Rope3_Seg01 null_rope03_connect
Rope3_Seg02 Rope3_Seg01
Rope3_Seg03 Rope3_Seg02
Rope3_Seg04 Rope3_Seg03
Rope3_Seg05 Rope3_Seg04
Rope3_Seg06 Rope3_Seg05
Rope3_Seg07 Rope3_Seg06
Rope3_Seg08 Rope3_Seg07
Rope3_Seg09 Rope3_Seg08
R_rear_hand01 Rope3_Seg09
R_rear_hand02 Rope3_Seg09
R_rear_hand03 Rope3_Seg09
Rope4_Seg01 null_rope04_connect
Rope4_Seg02 Rope4_Seg01
Rope4_Seg03 Rope4_Seg02
Rope4_Seg04 Rope4_Seg03
Rope4_Seg05 Rope4_Seg04
Rope4_Seg06 Rope4_Seg05
Rope4_Seg07 Rope4_Seg06
Rope4_Seg08 Rope4_Seg07
Rope4_Seg09 Rope4_Seg08
L_rear_hand01 Rope4_Seg09
L_rear_hand02 Rope4_Seg09
L_rear_hand03 Rope4_Seg09
[BasePosition]
#SegmentName Tx, Ty, Tz, Rx, Ry, Rz, BoneLength
MASTER 0.000000 0.000000 0.000000 -90.000000 0.000000 0.000000 10.000000 
root 0.000000 0.000000 0.000000 0.000000 0.000000 0.000000 10.000000 
chest 0.000000 0.000000 0.000000 0.000000 0.000000 0.000000 10.000000 
L_mid_tent01 0.000000 0.000000 0.000000 0.000000 0.000000 0.000000 10.000000 
R_mid_tent01 0.000000 0.000000 0.000000 0.000000 0.000000 0.000000 10.000000 
spine01 0.000000 0.000000 0.000000 0.000000 0.000000 0.000000 10.000000 
Bip01_Neck 0.000000 0.000000 0.000000 0.000000 0.000000 0.000000 10.000000 
L_humerus 0.000000 0.000000 0.000000 0.000000 0.000000 0.000000 10.000000 
R_humerus 0.000000 0.000000 0.000000 0.000000 0.000000 0.000000 10.000000 
weapon_bone 0.000000 0.000000 0.000000 0.000000 0.000000 0.000000 10.000000 
Bip01_Head 0.000000 0.000000 0.000000 0.000000 0.000000 0.000000 10.000000 
eye_left_bone 0.000000 0.000000 0.000000 0.000000 0.000000 0.000000 10.000000 
eye_right_bone 0.000000 0.000000 0.000000 0.000000 0.000000 0.000000 10.000000 
L_forearm 0.000000 0.000000 0.000000 0.000000 0.000000 0.000000 10.000000 
L_front_hand 0.000000 0.000000 0.000000 0.000000 0.000000 0.000000 10.000000 
L_weapon_bone 0.000000 0.000000 0.000000 0.000000 0.000000 0.000000 10.000000 
L_front_hand01_01 0.000000 0.000000 0.000000 0.000000 0.000000 0.000000 10.000000 
L_front_hand02_01 0.000000 0.000000 0.000000 0.000000 0.000000 0.000000 10.000000 
L_front_hand03_01 0.000000 0.000000 0.000000 0.000000 0.000000 0.000000 10.000000 
L_front_hand01_02 0.000000 0.000000 0.000000 0.000000 0.000000 0.000000 10.000000 
L_front_hand02_02 0.000000 0.000000 0.000000 0.000000 0.000000 0.000000 10.000000 
L_front_hand03_02 0.000000 0.000000 0.000000 0.000000 0.000000 0.000000 10.000000 
R_forearm 0.000000 0.000000 0.000000 0.000000 0.000000 0.000000 10.000000 
R_front_hand 0.000000 0.000000 0.000000 0.000000 0.000000 0.000000 10.000000 
R_weapon_bone 0.000000 0.000000 0.000000 0.000000 0.000000 0.000000 10.000000 
R_front_hand01_01 0.000000 0.000000 0.000000 0.000000 0.000000 0.000000 10.000000 
R_front_hand02_01 0.000000 0.000000 0.000000 0.000000 0.000000 0.000000 10.000000 
R_front_hand03_01 0.000000 0.000000 0.000000 0.000000 0.000000 0.000000 10.000000 
R_front_hand01_02 0.000000 0.000000 0.000000 0.000000 0.000000 0.000000 10.000000 
R_front_hand02_02 0.000000 0.000000 0.000000 0.000000 0.000000 0.000000 10.000000 
R_front_hand03_02 0.000000 0.000000 0.000000 0.000000 0.000000 0.000000 10.000000 
null_rope01_connect 0.000000 0.000000 0.000000 0.000000 0.000000 0.000000 10.000000 
Rope1_Seg01 0.000000 0.000000 0.000000 0.000000 0.000000 0.000000 10.000000 
Rope1_Seg02 0.000000 0.000000 0.000000 0.000000 0.000000 0.000000 10.000000 
Rope1_Seg03 0.000000 0.000000 0.000000 0.000000 0.000000 0.000000 10.000000 
Rope1_Seg04 0.000000 0.000000 0.000000 0.000000 0.000000 0.000000 10.000000 
Rope1_Seg05 0.000000 0.000000 0.000000 0.000000 0.000000 0.000000 10.000000 
Rope1_Seg06 0.000000 0.000000 0.000000 0.000000 0.000000 0.000000 10.000000 
Rope1_Seg07 0.000000 0.000000 0.000000 0.000000 0.000000 0.000000 10.000000 
Rope1_Seg09 0.000000 0.000000 0.000000 0.000000 0.000000 0.000000 10.000000 
L_mid_hand01 0.000000 0.000000 0.000000 0.000000 0.000000 0.000000 10.000000 
L_mid_hand02 0.000000 0.000000 0.000000 0.000000 0.000000 0.000000 10.000000 
L_mid_hand03 0.000000 0.000000 0.000000 0.000000 0.000000 0.000000 10.000000 
null_rope02_connect 0.000000 0.000000 0.000000 0.000000 0.000000 0.000000 10.000000 
Rope2_Seg01 0.000000 0.000000 0.000000 0.000000 0.000000 0.000000 10.000000 
Rope2_Seg02 0.000000 0.000000 0.000000 0.000000 0.000000 0.000000 10.000000 
Rope2_Seg03 0.000000 0.000000 0.000000 0.000000 0.000000 0.000000 10.000000 
Rope2_Seg04 0.000000 0.000000 0.000000 0.000000 0.000000 0.000000 10.000000 
Rope2_Seg05 0.000000 0.000000 0.000000 0.000000 0.000000 0.000000 10.000000 
Rope2_Seg06 0.000000 0.000000 0.000000 0.000000 0.000000 0.000000 10.000000 
Rope2_Seg07 0.000000 0.000000 0.000000 0.000000 0.000000 0.000000 10.000000 
Rope2_Seg09 0.000000 0.000000 0.000000 0.000000 0.000000 0.000000 10.000000 
R_mid_hand01 0.000000 0.000000 0.000000 0.000000 0.000000 0.000000 10.000000 
R_mid_hand02 0.000000 0.000000 0.000000 0.000000 0.000000 0.000000 10.000000 
R_mid_hand03 0.000000 0.000000 0.000000 0.000000 0.000000 0.000000 10.000000 
spine02 0.000000 0.000000 0.000000 0.000000 0.000000 0.000000 10.000000 
spine03 0.000000 0.000000 0.000000 0.000000 0.000000 0.000000 10.000000 
pelvis 0.000000 0.000000 0.000000 0.000000 0.000000 0.000000 10.000000 
null_rope03_connect 0.000000 0.000000 0.000000 0.000000 0.000000 0.000000 10.000000 
null_rope04_connect 0.000000 0.000000 0.000000 0.000000 0.000000 0.000000 10.000000 
Rope3_Seg01 0.000000 0.000000 0.000000 0.000000 0.000000 0.000000 10.000000 
Rope3_Seg02 0.000000 0.000000 0.000000 0.000000 0.000000 0.000000 10.000000 
Rope3_Seg03 0.000000 0.000000 0.000000 0.000000 0.000000 0.000000 10.000000 
Rope3_Seg04 0.000000 0.000000 0.000000 0.000000 0.000000 0.000000 10.000000 
Rope3_Seg05 0.000000 0.000000 0.000000 0.000000 0.000000 0.000000 10.000000 
Rope3_Seg06 0.000000 0.000000 0.000000 0.000000 0.000000 0.000000 10.000000 
Rope3_Seg07 0.000000 0.000000 0.000000 0.000000 0.000000 0.000000 10.000000 
Rope3_Seg08 0.000000 0.000000 0.000000 0.000000 0.000000 0.000000 10.000000 
Rope3_Seg09 0.000000 0.000000 0.000000 0.000000 0.000000 0.000000 10.000000 
R_rear_hand01 0.000000 0.000000 0.000000 0.000000 0.000000 0.000000 10.000000 
R_rear_hand02 0.000000 0.000000 0.000000 0.000000 0.000000 0.000000 10.000000 
R_rear_hand03 0.000000 0.000000 0.000000 0.000000 0.000000 0.000000 10.000000 
Rope4_Seg01 0.000000 0.000000 0.000000 0.000000 0.000000 0.000000 10.000000 
Rope4_Seg02 0.000000 0.000000 0.000000 0.000000 0.000000 0.000000 10.000000 
Rope4_Seg03 0.000000 0.000000 0.000000 0.000000 0.000000 0.000000 10.000000 
Rope4_Seg04 0.000000 0.000000 0.000000 0.000000 0.000000 0.000000 10.000000 
Rope4_Seg05 0.000000 0.000000 0.000000 0.000000 0.000000 0.000000 10.000000 
Rope4_Seg06 0.000000 0.000000 0.000000 0.000000 0.000000 0.000000 10.000000 
Rope4_Seg07 0.000000 0.000000 0.000000 0.000000 0.000000 0.000000 10.000000 
Rope4_Seg08 0.000000 0.000000 0.000000 0.000000 0.000000 0.000000 10.000000 
Rope4_Seg09 0.000000 0.000000 0.000000 0.000000 0.000000 0.000000 10.000000 
L_rear_hand01 0.000000 0.000000 0.000000 0.000000 0.000000 0.000000 10.000000 
L_rear_hand02 0.000000 0.000000 0.000000 0.000000 0.000000 0.000000 10.000000 
L_rear_hand03 0.000000 0.000000 0.000000 0.000000 0.000000 0.000000 10.000000 
#Beginning of Data. Separated by tabs
#Fr	Tx	Ty	Tz	Rx	Ry	Rz	SF
[MASTER]
19 0.000000 0.000000 0.000000 0.001660 0.001660 0.001660 0.000000
20 0.000000 0.000000 0.000000 0.001660 0.001660 0.001660 0.000000
[root]
19 28.816820 361.378418 1598.148438 -66.576492 -13.136500 -142.982635 1638.750610
20 28.549910 358.025330 1580.645264 -66.761993 -12.901560 -142.204056 1620.937134
[chest]
19 -84.512650 -34.090519 0.000000 -2.875346 -7.815238 176.370865 91.129311
20 -84.512650 -34.090519 0.000000 -2.881399 -6.915994 176.434799 91.129311
[L_mid_tent01]
19 27.299076 22.179325 -249.918671 111.779572 8.116118 151.638992 252.381668
20 27.299076 22.179321 -249.918671 110.665260 9.667811 149.745148 252.381668
[R_mid_tent01]
19 23.228794 24.509907 226.238495 -111.223427 -34.911652 29.549742 228.744751
20 23.228794 24.509907 226.238495 -115.383286 -30.211945 30.656622 228.744751
[spine01]
19 -0.361383 -0.195265 0.000000 0.001936 0.001328 21.098618 0.410763
20 -0.361383 -0.195265 0.000000 0.001936 0.001328 21.101973 0.410763
[Bip01_Neck]
19 165.484543 71.581718 0.000119 175.896118 1.177290 24.871183 180.302734
20 165.484543 71.581718 0.000119 175.896118 1.177290 24.871183 180.302734
[L_humerus]
19 -13.983130 -135.272980 -120.471481 -68.079498 16.285954 6.048848 181.680161
20 -13.983130 -135.272980 -120.471481 -67.796608 18.740585 8.432563 181.680161
[R_humerus]
19 -13.983309 -135.273102 125.287651 141.371246 -33.018127 -15.565784 184.909012
20 -13.983309 -135.273102 125.287651 141.231094 -33.414234 -16.752253 184.909012
[weapon_bone]
19 235.964890 -300.705902 0.000000 0.000000 -89.951546 -128.212341 382.234833
20 235.964890 -300.705902 0.000000 0.000000 -89.951546 -128.212341 382.234833
[Bip01_Head]
19 261.787872 74.541626 0.152169 41.901535 14.084193 -69.980598 272.193604
20 261.334290 75.567795 0.271609 41.346977 13.936914 -69.970200 272.040771
[eye_left_bone]
19 31.672857 158.716217 -75.624153 -104.218590 -85.597984 4.718000 178.642151
20 31.427990 158.571594 -75.576965 -104.218590 -85.597984 4.718000 178.450409
[eye_right_bone]
19 42.687225 159.652023 53.042107 75.788536 -85.594551 4.713911 173.563919
20 42.352024 159.481750 53.098305 75.788536 -85.594551 4.713911 173.342300
[L_forearm]
19 322.776093 0.000000 -0.000119 0.001601 0.001717 -4.010117 322.776093
20 322.776093 0.000000 -0.000119 0.001578 0.001738 -5.519906 322.776093
[L_front_hand]
19 241.149185 -0.042021 -3.300071 -70.541206 -0.290724 2.349370 241.171753
20 241.149185 -0.042021 -3.300071 -15.429119 -0.473640 -2.439823 241.171753
[L_weapon_bone]
19 156.183838 0.000000 0.000000 0.000462 0.002301 -67.304398 156.183838
20 156.183838 0.000000 0.000000 0.000558 0.002280 -62.492359 156.183838
[L_front_hand01_01]
19 86.095154 20.947098 -0.655860 -0.296602 -0.519484 67.352386 88.609184
20 86.095154 20.947098 -0.655860 -0.291024 -0.523043 67.031754 88.609184
[L_front_hand02_01]
19 86.935165 -11.437475 24.513514 143.438431 -55.714409 -48.439430 91.046425
20 86.935165 -11.437475 24.513514 143.061005 -55.523731 -47.982006 91.046425
[L_front_hand03_01]
19 86.637497 -14.123976 -20.424902 -143.692078 53.934513 -50.396946 90.126129
20 86.637497 -14.123976 -20.424902 -143.335892 53.745697 -49.957321 90.126129
[L_front_hand01_02]
19 71.020905 -0.000179 0.000030 0.001534 0.001777 -8.378850 71.020905
20 71.020905 -0.000179 0.000030 0.001534 0.001777 -8.378850 71.020905
[L_front_hand02_02]
19 71.020927 -0.000119 0.000060 0.001534 0.001777 -8.378850 71.020927
20 71.020927 -0.000119 0.000060 0.001534 0.001777 -8.378850 71.020927
[L_front_hand03_02]
19 71.020905 -0.000060 0.000060 0.001534 0.001777 -8.378850 71.020905
20 71.020905 -0.000060 0.000060 0.001534 0.001777 -8.378850 71.020905
[R_forearm]
19 322.776428 -0.000060 0.000030 0.118786 -0.179088 -34.126507 322.776428
20 322.776428 -0.000060 0.000030 0.118430 -0.179324 -33.898949 322.776428
[R_front_hand]
19 238.847015 -0.006795 2.210259 -2.635298 -10.645461 -26.312506 238.857239
20 238.847015 -0.006795 2.210259 -2.635298 -10.645461 -26.312506 238.857239
[R_weapon_bone]
19 155.664093 0.002503 -0.000030 0.003487 0.001180 -90.988930 155.664078
20 155.664093 0.002503 -0.000030 0.003487 0.001180 -90.988930 155.664078
[R_front_hand01_01]
19 87.624611 14.231146 22.918642 -154.633514 -59.950626 61.746063 91.683487
20 87.624611 14.231146 22.918642 -154.633499 -59.950615 61.746044 91.683487
[R_front_hand02_01]
19 89.356956 14.367283 -19.491137 154.602661 58.302849 63.744381 92.579636
20 89.356956 14.367283 -19.491137 154.602661 58.302849 63.744389 92.579636
[R_front_hand03_01]
19 87.286232 -22.307278 -0.143439 0.162155 -0.423168 -75.767921 90.091743
20 87.286232 -22.307278 -0.143439 0.162155 -0.423168 -75.767921 90.091743
[R_front_hand01_02]
19 71.020905 0.000060 0.000119 0.002346 0.000062 86.953400 71.020905
20 71.020905 0.000060 0.000119 0.002345 -0.000098 94.805954 71.020905
[R_front_hand02_02]
19 71.020844 -0.000030 -0.000119 0.002346 0.000062 86.953400 71.020836
20 71.020844 -0.000030 -0.000119 0.002345 -0.000098 94.805954 71.020836
[R_front_hand03_02]
19 71.020905 0.000000 0.000030 0.002346 0.000062 86.953400 71.020905
20 71.020905 0.000000 0.000030 0.002345 -0.000098 94.805954 71.020905
[null_rope01_connect]
19 328.732483 0.000000 -0.000238 -152.348831 33.403252 41.685474 328.732483
20 328.732483 0.000000 -0.000238 -149.604813 34.097584 44.635227 328.732483
[Rope1_Seg01]
19 -0.000027 0.000017 0.000067 52.967896 47.533100 64.852478 0.000074
20 -0.000027 0.000015 0.000062 54.795784 48.441338 66.805832 0.000069
[Rope1_Seg02]
19 139.999863 -0.000179 0.000000 -3.165612 -11.077215 1.705534 139.999863
20 139.999863 -0.000179 0.000000 -3.953103 -13.662866 2.439226 139.999863
[Rope1_Seg03]
19 139.999924 0.000060 -0.000060 -5.245823 -12.081083 1.209347 139.999924
20 139.999924 0.000060 -0.000060 -6.642983 -14.081414 1.516863 139.999924
[Rope1_Seg04]
19 139.999924 -0.000060 -0.000119 -12.393567 -17.813904 -0.314353 139.999924
20 139.999924 -0.000060 -0.000119 -14.642889 -18.734602 -1.087055 139.999924
[Rope1_Seg05]
19 139.999832 0.000119 -0.000060 -9.368446 -9.487892 -2.057576 139.999832
20 139.999832 0.000119 -0.000060 -5.379346 -5.331259 -1.021542 139.999832
[Rope1_Seg06]
19 139.999954 0.000119 -0.000060 5.477164 4.016383 2.646472 139.999954
20 139.999954 0.000119 -0.000060 9.401217 6.523479 4.689809 139.999954
[Rope1_Seg07]
19 139.999985 0.000060 0.000000 12.735372 11.975557 5.236293 139.999985
20 139.999985 0.000060 0.000000 11.961069 11.057761 4.921117 139.999985
[Rope1_Seg09]
19 121.602913 0.000119 -0.000089 -156.511185 -1.359586 0.845596 121.602913
20 121.602913 0.000119 -0.000089 -122.841034 -1.360055 0.849302 121.602913
[L_mid_hand01]
19 103.859421 1.038730 8.195221 109.051636 -40.575306 -13.193498 104.187431
20 103.859421 1.038730 8.195221 110.960983 -46.127617 -15.968385 104.187431
[L_mid_hand02]
19 105.572853 -4.139662 -10.864139 -146.698257 31.460821 -37.873573 106.211075
20 105.572853 -4.139662 -10.864139 -149.965897 34.562794 -43.864349 106.211075
[L_mid_hand03]
19 104.641464 17.579376 -3.913581 -14.272459 12.313712 43.866222 106.179977
20 104.641464 17.579376 -3.913581 -12.948408 13.703238 49.759277 106.179977
[null_rope02_connect]
19 328.732849 0.000179 -0.000119 -177.738510 -5.645857 -99.708542 328.732849
20 328.732849 0.000179 -0.000119 178.553757 -2.762312 -102.665573 328.732849
[Rope2_Seg01]
19 0.000095 0.000153 0.000043 95.828033 4.502121 -125.353600 0.000185
20 0.000095 0.000153 0.000045 96.772484 7.460300 -116.473755 0.000186
[Rope2_Seg02]
19 139.999741 -0.000060 -0.000119 -1.064425 5.359393 6.887928 139.999756
20 139.999741 -0.000060 -0.000119 -3.646742 8.728916 9.511449 139.999756
[Rope2_Seg03]
19 140.000107 0.000030 0.000000 -2.606544 21.745922 33.211571 140.000107
20 140.000107 0.000030 0.000000 -10.370944 29.424603 48.094852 140.000107
[Rope2_Seg04]
19 139.999802 0.000000 -0.000060 -1.560547 23.149263 59.371174 139.999802
20 139.999802 0.000000 -0.000060 -8.640569 9.634384 45.029961 139.999802
[Rope2_Seg05]
19 139.999985 -0.000060 0.000119 -1.461573 8.041000 27.745275 139.999985
20 139.999985 -0.000060 0.000119 -1.045505 4.900661 26.881840 139.999985
[Rope2_Seg06]
19 139.999893 -0.000030 -0.000119 0.118647 5.756821 22.217232 139.999893
20 139.999893 -0.000030 -0.000119 1.407760 3.759916 22.843325 139.999893
[Rope2_Seg07]
19 139.999893 0.000060 -0.000060 0.184774 1.996405 9.066321 139.999893
20 139.999893 0.000060 -0.000060 1.025682 1.390323 9.516858 139.999893
[Rope2_Seg09]
19 121.338966 0.000089 -0.000060 33.793236 -1.359788 -0.847141 121.338966
20 121.338966 0.000089 -0.000060 33.793236 -1.359788 -0.847141 121.338966
[R_mid_hand01]
19 104.680779 11.144459 -10.335981 -32.941471 36.319790 45.161270 105.778534
20 104.680779 11.144459 -10.335981 -36.072029 33.220169 39.674145 105.778534
[R_mid_hand02]
19 104.070427 2.443552 8.231699 67.501602 -49.586681 18.039698 104.424065
20 104.070427 2.443552 8.231699 69.651680 -44.494339 15.107097 104.424065
[R_mid_hand03]
19 106.028137 -11.221827 -5.996406 -171.624130 13.459940 -54.978210 106.788818
20 106.028137 -11.221827 -5.996406 -170.371872 12.607442 -49.434200 106.788818
[spine02]
19 129.756927 0.001550 0.000119 0.365608 -4.044261 -13.002472 129.756927
20 129.756927 0.001550 0.000119 0.353246 -4.045503 -12.826467 129.756927
[spine03]
19 78.614044 0.081549 -4.899013 2.166064 3.686004 20.616240 78.766579
20 78.614044 0.081544 -4.899012 2.156170 3.689826 20.460077 78.766579
[pelvis]
19 169.435242 0.051022 0.000000 -0.061646 -0.179825 14.839739 169.435257
20 169.435242 0.051022 0.000000 -0.061540 -0.179861 14.771912 169.435257
[null_rope03_connect]
19 -1.257226 -2.466202 137.391083 -58.852211 -38.389099 130.213654 137.418976
20 -1.257226 -2.466202 137.391083 -58.794849 -38.980526 129.693130 137.418976
[null_rope04_connect]
19 -1.259640 -2.480268 -137.844437 -58.852211 -38.389099 130.213654 137.872513
20 -1.259640 -2.480268 -137.844437 -58.794849 -38.980526 129.693130 137.872513
[Rope3_Seg01]
19 0.000000 0.000000 0.000000 -116.624290 -25.871208 -109.795624 0.000000
20 0.000000 0.000000 0.000000 -111.434212 -24.102856 -118.943336 0.000000
[Rope3_Seg02]
19 139.999924 -0.000119 0.000060 7.434903 18.254526 1.865414 139.999924
20 139.999924 -0.000119 0.000060 8.388909 15.622135 3.066559 139.999924
[Rope3_Seg03]
19 139.999924 -0.000119 0.000119 11.428726 18.328182 0.381401 139.999924
20 139.999924 -0.000119 0.000119 15.928630 19.135115 1.326353 139.999924
[Rope3_Seg04]
19 139.999924 0.000119 0.000000 10.703222 12.879921 -1.961249 139.999924
20 139.999924 0.000119 0.000000 15.952315 14.130167 -2.452425 139.999924
[Rope3_Seg05]
19 139.999924 -0.000238 0.000060 20.913406 22.579493 -14.604765 139.999924
20 139.999924 -0.000238 0.000060 26.568222 22.115690 -15.234032 139.999924
[Rope3_Seg06]
19 139.999893 -0.000119 -0.000060 11.685900 12.850237 -20.490583 139.999893
20 139.999893 -0.000119 -0.000060 12.903878 10.191963 -21.581770 139.999893
[Rope3_Seg07]
19 139.999771 0.000060 -0.000119 3.551341 3.277639 -8.795995 139.999771
20 139.999771 0.000060 -0.000119 3.583652 1.945452 -9.117454 139.999771
[Rope3_Seg08]
19 139.999985 -0.000060 0.000000 1.783023 1.379831 -4.578483 139.999985
20 139.999985 -0.000060 0.000000 1.726476 0.684746 -4.594303 139.999985
[Rope3_Seg09]
19 90.185997 -0.000179 -0.000060 48.032581 -1.358781 -0.847299 90.185997
20 90.185997 -0.000179 -0.000060 45.258717 -1.359095 -0.848780 90.185997
[R_rear_hand01]
19 103.366196 -6.073594 -10.757982 -175.005676 24.184256 -67.364212 104.101845
20 103.366196 -6.073594 -10.757982 -172.238480 23.483227 -60.517689 104.101845
[R_rear_hand02]
19 100.509819 12.039542 -7.992327 -17.086416 35.320782 65.017654 101.543350
20 100.509819 12.039542 -7.992327 -21.154240 33.253242 57.810928 101.543350
[R_rear_hand03]
19 101.539970 5.215704 5.435467 75.861748 -66.081764 16.832098 101.819031
20 101.539970 5.215704 5.435467 78.590141 -59.929554 13.768726 101.819031
[Rope4_Seg01]
19 -0.000014 -0.000033 -0.000153 -95.872795 24.781240 93.256462 0.000157
20 -0.000013 -0.000031 -0.000153 -94.888184 28.880348 94.392418 0.000156
[Rope4_Seg02]
19 139.999985 0.000060 0.000119 0.018895 2.944609 0.862989 139.999985
20 139.999985 0.000060 0.000119 0.057507 2.993707 1.190555 139.999985
[Rope4_Seg03]
19 139.999924 0.000000 -0.000238 0.085376 4.151325 1.217271 139.999924
20 139.999924 0.000000 -0.000238 0.118038 4.224964 1.678855 139.999924
[Rope4_Seg04]
19 139.999985 0.000000 0.000119 0.281531 6.840744 2.857734 139.999985
20 139.999985 0.000000 0.000119 0.277386 7.430308 5.007149 139.999985
[Rope4_Seg05]
19 139.999802 -0.000060 -0.000119 1.249535 15.003303 6.849848 139.999802
20 139.999802 -0.000060 -0.000119 1.008771 14.587076 7.895196 139.999802
[Rope4_Seg06]
19 139.999924 0.000000 0.000060 3.951275 3.574880 -8.607171 139.999924
20 139.999924 0.000000 0.000060 5.929677 -0.000793 -15.586791 139.999924
[Rope4_Seg07]
19 139.999802 0.000000 0.000000 1.959519 -0.673579 -5.393627 139.999802
20 139.999802 0.000000 0.000000 1.845526 -1.293357 -6.646402 139.999802
[Rope4_Seg08]
19 139.999924 0.000000 0.000119 -0.682958 0.667182 -2.040119 139.999924
20 139.999924 0.000000 0.000119 -0.845012 0.031808 -2.620087 139.999924
[Rope4_Seg09]
19 90.185791 0.000060 0.000060 -173.803604 2.230849 0.850652 90.185791
20 90.185791 0.000060 0.000060 -176.249664 2.227106 0.851623 90.185791
[L_rear_hand01]
19 101.696655 -8.392275 -7.654577 -21.412823 -33.100071 122.657455 102.329041
20 101.696655 -8.392275 -7.654577 -23.617750 -31.657484 126.776222 102.329041
[L_rear_hand02]
19 102.726799 -1.568258 5.773216 78.741280 59.512878 166.400970 102.900848
20 102.726799 -1.568258 5.773216 79.838760 55.818478 167.703323 102.900848
[L_rear_hand03]
19 104.552910 9.721220 -10.420293 -172.051376 -23.426100 -119.941948 105.519653
20 104.552910 9.721220 -10.420293 -170.465469 -22.855137 -123.984573 105.519653
